<?xml version="1.0" standalone="no"?>
<!DOCTYPE svg PUBLIC "-//W3C//DTD SVG 20010904//EN"
 "http://www.w3.org/TR/2001/REC-SVG-20010904/DTD/svg10.dtd">
<svg version="1.0" xmlns="http://www.w3.org/2000/svg"
 width="232.000000pt" height="207.000000pt" viewBox="0 0 232.000000 207.000000"
 preserveAspectRatio="xMidYMid meet">
<metadata>
Created by potrace 1.11, written by Peter Selinger 2001-2013
</metadata>
<g transform="translate(0.000000,207.000000) scale(0.100000,-0.100000)"
fill="#000000" stroke="none">
<path d="M1165 2053 c-11 -8 -26 -18 -33 -22 -9 -5 -10 -14 -2 -37 29 -82 -67
-143 -133 -86 -16 14 -20 14 -45 -5 -23 -17 -27 -27 -27 -72 0 -43 -4 -56 -24
-72 -28 -23 -79 -25 -110 -3 -21 15 -25 15 -49 -3 -24 -18 -27 -26 -24 -66 3
-39 0 -50 -22 -72 -29 -29 -66 -32 -107 -8 -28 16 -30 16 -56 -4 -16 -12 -26
-27 -23 -35 9 -29 3 -79 -14 -97 -17 -19 -3 -41 487 -728 397 -557 509 -707
523 -704 45 8 76 2 99 -19 l24 -22 31 22 c22 16 29 27 24 39 -4 9 -9 30 -12
48 -9 67 89 112 138 63 25 -25 25 -25 61 1 24 16 27 24 19 39 -46 86 58 173
126 105 l25 -25 30 22 c23 17 28 27 23 43 -35 101 57 174 132 104 l22 -21 31
23 c21 16 29 28 25 39 -15 35 -15 71 0 95 9 13 16 28 16 32 0 4 -224 323 -499
708 l-498 700 -45 -3 c-32 -2 -51 2 -69 16 -22 18 -27 18 -44 5z"/>
<path d="M433 1905 c-16 -19 -31 -25 -61 -25 -32 0 -41 -4 -50 -25 -16 -36
-15 -40 13 -71 29 -31 31 -53 10 -93 -16 -33 -33 -41 -79 -41 -25 0 -35 -6
-44 -25 -16 -34 -15 -54 2 -61 8 -3 20 -19 26 -35 24 -57 -30 -124 -90 -112
-22 4 -28 -1 -43 -32 -17 -36 -17 -37 7 -56 32 -25 40 -62 21 -99 -19 -37 -49
-54 -85 -47 -23 5 -29 1 -44 -30 -16 -35 -16 -35 9 -59 24 -22 29 -37 26 -80
-2 -18 60 -48 509 -244 281 -122 513 -220 516 -217 3 3 -138 207 -314 453
l-320 448 24 29 c28 33 30 54 9 84 -14 19 -11 23 43 61 l57 40 18 -24 c20 -26
65 -32 85 -12 15 15 16 74 2 83 -18 11 -11 22 30 49 22 14 40 30 40 35 0 7
-275 132 -290 131 -3 0 -15 -12 -27 -25z"/>
<path d="M1881 1303 c11 -28 184 -263 194 -263 6 0 18 14 27 32 15 32 14 33
-20 65 -30 28 -34 37 -29 67 l5 34 -76 32 c-106 45 -105 44 -101 33z"/>
</g>
</svg>
